<svg xmlns="http://www.w3.org/2000/svg" width="800" height="800" class="icon flat-color" data-name="Flat Color" viewBox="0 0 24 24"><path d="M21 7H3a1 1 0 0 0-1 1v12a2 2 0 0 0 2 2h16a2 2 0 0 0 2-2V8a1 1 0 0 0-1-1Z" style="fill:#000"/><path d="M22 6v3H2V6a2 2 0 0 1 2-2h16a2 2 0 0 1 2 2ZM9.71 17.71l4-4a1 1 0 0 0-1.42-1.42L9 15.59l-1.29-1.3a1 1 0 0 0-1.42 1.42l2 2a1 1 0 0 0 1.42 0Zm4 0 4-4a1 1 0 0 0-1.42-1.42l-4 4a1 1 0 0 0 0 1.42 1 1 0 0 0 1.42 0Z" style="fill:#2ca9bc"/><path d="M16 7a1 1 0 0 1-1-1V3a1 1 0 0 1 2 0v3a1 1 0 0 1-1 1ZM9 6V3a1 1 0 0 0-2 0v3a1 1 0 0 0 2 0Z" data-name="primary" style="fill:#000"/></svg>